<mxfile host="app.diagrams.net" modified="2024-02-19T20:29:22.673Z" agent="Mozilla/5.0 (Macintosh; Intel Mac OS X 10_15_7) AppleWebKit/605.1.15 (KHTML, like Gecko) Version/17.3.1 Safari/605.1.15" etag="vf9nK93_ChD5Bt9_E3gL" version="23.1.5" type="github">
  <diagram name="Page-1" id="2YBvvXClWsGukQMizWep">
    <mxGraphModel dx="1510" dy="889" grid="1" gridSize="10" guides="1" tooltips="1" connect="1" arrows="1" fold="1" page="1" pageScale="1" pageWidth="850" pageHeight="1100" math="0" shadow="0">
      <root>
        <mxCell id="0" />
        <mxCell id="1" parent="0" />
        <mxCell id="YJNnLyJVlC_eIxuYvdxh-1" value="Option 1: JSON payload to CSV file output - System:System Overview" style="text;html=1;align=center;verticalAlign=middle;whiteSpace=wrap;rounded=0;" vertex="1" parent="1">
          <mxGeometry x="70" y="20" width="280" height="30" as="geometry" />
        </mxCell>
        <mxCell id="YJNnLyJVlC_eIxuYvdxh-55" value="S-W.com" style="shape=umlLifeline;perimeter=lifelinePerimeter;container=1;collapsible=0;recursiveResize=0;rounded=0;shadow=0;strokeWidth=1;fillColor=#1ba1e2;strokeColor=#006EAF;fontColor=#ffffff;" vertex="1" parent="1">
          <mxGeometry x="90" y="90" width="140" height="660" as="geometry" />
        </mxCell>
        <mxCell id="YJNnLyJVlC_eIxuYvdxh-93" value="response csv" style="html=1;verticalAlign=bottom;endArrow=open;dashed=1;endSize=8;curved=0;rounded=0;exitX=0;exitY=1;exitDx=0;exitDy=-5;exitPerimeter=0;" edge="1" parent="YJNnLyJVlC_eIxuYvdxh-55">
          <mxGeometry x="0.0588" y="-5" relative="1" as="geometry">
            <mxPoint x="75" y="650" as="targetPoint" />
            <mxPoint x="240" y="650" as="sourcePoint" />
            <mxPoint as="offset" />
            <Array as="points">
              <mxPoint x="160" y="650" />
            </Array>
          </mxGeometry>
        </mxCell>
        <mxCell id="YJNnLyJVlC_eIxuYvdxh-56" value="CSV Microservice" style="shape=umlLifeline;perimeter=lifelinePerimeter;container=1;collapsible=0;recursiveResize=0;rounded=0;shadow=0;strokeWidth=1;fillColor=#e1d5e7;strokeColor=#9673a6;" vertex="1" parent="1">
          <mxGeometry x="490" y="90" width="120" height="640" as="geometry" />
        </mxCell>
        <mxCell id="YJNnLyJVlC_eIxuYvdxh-57" value="" style="html=1;points=[[0,0,0,0,5],[0,1,0,0,-5],[1,0,0,0,5],[1,1,0,0,-5]];perimeter=orthogonalPerimeter;outlineConnect=0;targetShapes=umlLifeline;portConstraint=eastwest;newEdgeStyle={&quot;curved&quot;:0,&quot;rounded&quot;:0};" vertex="1" parent="YJNnLyJVlC_eIxuYvdxh-56">
          <mxGeometry x="55" y="160" width="10" height="480" as="geometry" />
        </mxCell>
        <mxCell id="YJNnLyJVlC_eIxuYvdxh-58" value="" style="html=1;points=[[0,0,0,0,5],[0,1,0,0,-5],[1,0,0,0,5],[1,1,0,0,-5]];perimeter=orthogonalPerimeter;outlineConnect=0;targetShapes=umlLifeline;portConstraint=eastwest;newEdgeStyle={&quot;curved&quot;:0,&quot;rounded&quot;:0};" vertex="1" parent="YJNnLyJVlC_eIxuYvdxh-56">
          <mxGeometry x="65" y="420" width="10" height="40" as="geometry" />
        </mxCell>
        <mxCell id="YJNnLyJVlC_eIxuYvdxh-59" value="validate if user is having access &lt;br&gt;to requested account" style="html=1;align=left;spacingLeft=2;endArrow=block;rounded=0;edgeStyle=orthogonalEdgeStyle;curved=0;rounded=0;" edge="1" parent="YJNnLyJVlC_eIxuYvdxh-56" target="YJNnLyJVlC_eIxuYvdxh-58">
          <mxGeometry x="0.2121" relative="1" as="geometry">
            <mxPoint x="65" y="400" as="sourcePoint" />
            <Array as="points">
              <mxPoint x="100" y="400" />
              <mxPoint x="100" y="430" />
            </Array>
            <mxPoint as="offset" />
          </mxGeometry>
        </mxCell>
        <mxCell id="YJNnLyJVlC_eIxuYvdxh-60" value="" style="rounded=0;whiteSpace=wrap;html=1;" vertex="1" parent="YJNnLyJVlC_eIxuYvdxh-56">
          <mxGeometry x="65" y="520" width="15" height="40" as="geometry" />
        </mxCell>
        <mxCell id="YJNnLyJVlC_eIxuYvdxh-61" value="" style="html=1;align=left;spacingLeft=2;endArrow=block;rounded=0;edgeStyle=orthogonalEdgeStyle;curved=0;rounded=0;entryX=0.75;entryY=1;entryDx=0;entryDy=0;" edge="1" parent="YJNnLyJVlC_eIxuYvdxh-56" source="YJNnLyJVlC_eIxuYvdxh-57" target="YJNnLyJVlC_eIxuYvdxh-60">
          <mxGeometry x="0.2222" relative="1" as="geometry">
            <mxPoint x="70" y="540" as="sourcePoint" />
            <Array as="points">
              <mxPoint x="100" y="500" />
              <mxPoint x="100" y="570" />
              <mxPoint x="76" y="570" />
            </Array>
            <mxPoint as="offset" />
            <mxPoint x="90" y="570" as="targetPoint" />
          </mxGeometry>
        </mxCell>
        <mxCell id="YJNnLyJVlC_eIxuYvdxh-64" value="HCL Commerce" style="shape=umlLifeline;perimeter=lifelinePerimeter;container=1;collapsible=0;recursiveResize=0;rounded=0;shadow=0;strokeWidth=1;fillColor=#dae8fc;strokeColor=#6c8ebf;" vertex="1" parent="1">
          <mxGeometry x="944" y="90" width="100" height="340" as="geometry" />
        </mxCell>
        <mxCell id="YJNnLyJVlC_eIxuYvdxh-65" value="" style="html=1;points=[[0,0,0,0,5],[0,1,0,0,-5],[1,0,0,0,5],[1,1,0,0,-5]];perimeter=orthogonalPerimeter;outlineConnect=0;targetShapes=umlLifeline;portConstraint=eastwest;newEdgeStyle={&quot;curved&quot;:0,&quot;rounded&quot;:0};" vertex="1" parent="YJNnLyJVlC_eIxuYvdxh-64">
          <mxGeometry x="45" y="160" width="10" height="50" as="geometry" />
        </mxCell>
        <mxCell id="YJNnLyJVlC_eIxuYvdxh-66" value="" style="html=1;points=[[0,0,0,0,5],[0,1,0,0,-5],[1,0,0,0,5],[1,1,0,0,-5]];perimeter=orthogonalPerimeter;outlineConnect=0;targetShapes=umlLifeline;portConstraint=eastwest;newEdgeStyle={&quot;curved&quot;:0,&quot;rounded&quot;:0};" vertex="1" parent="YJNnLyJVlC_eIxuYvdxh-64">
          <mxGeometry x="45" y="300" width="10" height="40" as="geometry" />
        </mxCell>
        <mxCell id="YJNnLyJVlC_eIxuYvdxh-69" value="Kong" style="shape=umlLifeline;perimeter=lifelinePerimeter;container=1;collapsible=0;recursiveResize=0;rounded=0;shadow=0;strokeWidth=1;fillColor=#ffe6cc;strokeColor=#d79b00;" vertex="1" parent="1">
          <mxGeometry x="290" y="90" width="90" height="670" as="geometry" />
        </mxCell>
        <mxCell id="YJNnLyJVlC_eIxuYvdxh-70" value="request to /qbexport API" style="html=1;verticalAlign=bottom;endArrow=block;curved=0;rounded=0;entryX=0;entryY=0;entryDx=0;entryDy=5;" edge="1" parent="YJNnLyJVlC_eIxuYvdxh-69">
          <mxGeometry relative="1" as="geometry">
            <mxPoint x="100" y="75" as="sourcePoint" />
          </mxGeometry>
        </mxCell>
        <mxCell id="YJNnLyJVlC_eIxuYvdxh-71" value="response qbInvoices" style="html=1;verticalAlign=bottom;endArrow=open;dashed=1;endSize=8;curved=0;rounded=0;exitX=0;exitY=1;exitDx=0;exitDy=-5;" edge="1" parent="YJNnLyJVlC_eIxuYvdxh-69">
          <mxGeometry relative="1" as="geometry">
            <mxPoint x="100" y="145" as="targetPoint" />
          </mxGeometry>
        </mxCell>
        <mxCell id="YJNnLyJVlC_eIxuYvdxh-72" value="" style="html=1;points=[[0,0,0,0,5],[0,1,0,0,-5],[1,0,0,0,5],[1,1,0,0,-5]];perimeter=orthogonalPerimeter;outlineConnect=0;targetShapes=umlLifeline;portConstraint=eastwest;newEdgeStyle={&quot;curved&quot;:0,&quot;rounded&quot;:0};" vertex="1" parent="YJNnLyJVlC_eIxuYvdxh-69">
          <mxGeometry x="40" y="70" width="10" height="600" as="geometry" />
        </mxCell>
        <mxCell id="YJNnLyJVlC_eIxuYvdxh-73" value="" style="html=1;points=[[0,0,0,0,5],[0,1,0,0,-5],[1,0,0,0,5],[1,1,0,0,-5]];perimeter=orthogonalPerimeter;outlineConnect=0;targetShapes=umlLifeline;portConstraint=eastwest;newEdgeStyle={&quot;curved&quot;:0,&quot;rounded&quot;:0};" vertex="1" parent="YJNnLyJVlC_eIxuYvdxh-69">
          <mxGeometry x="50" y="100" width="10" height="40" as="geometry" />
        </mxCell>
        <mxCell id="YJNnLyJVlC_eIxuYvdxh-74" value="Validate JWT" style="html=1;align=left;spacingLeft=2;endArrow=block;rounded=0;edgeStyle=orthogonalEdgeStyle;curved=0;rounded=0;exitX=1;exitY=0;exitDx=0;exitDy=5;exitPerimeter=0;" edge="1" parent="YJNnLyJVlC_eIxuYvdxh-69" source="YJNnLyJVlC_eIxuYvdxh-72" target="YJNnLyJVlC_eIxuYvdxh-73">
          <mxGeometry x="0.2632" relative="1" as="geometry">
            <mxPoint x="55" y="80" as="sourcePoint" />
            <Array as="points">
              <mxPoint x="50" y="80" />
              <mxPoint x="85" y="80" />
              <mxPoint x="85" y="110" />
            </Array>
            <mxPoint as="offset" />
          </mxGeometry>
        </mxCell>
        <mxCell id="YJNnLyJVlC_eIxuYvdxh-75" value="request to /invoice/csv API with JWT" style="html=1;verticalAlign=bottom;endArrow=block;curved=0;rounded=0;entryX=0;entryY=0;entryDx=0;entryDy=5;exitX=1;exitY=0;exitDx=0;exitDy=5;exitPerimeter=0;" edge="1" parent="1" source="YJNnLyJVlC_eIxuYvdxh-106" target="YJNnLyJVlC_eIxuYvdxh-72">
          <mxGeometry x="0.0588" y="5" relative="1" as="geometry">
            <mxPoint x="160" y="165" as="sourcePoint" />
            <mxPoint as="offset" />
          </mxGeometry>
        </mxCell>
        <mxCell id="YJNnLyJVlC_eIxuYvdxh-76" value="request to /invoice API with JWT" style="html=1;verticalAlign=bottom;endArrow=block;curved=0;rounded=0;entryX=0;entryY=0;entryDx=0;entryDy=5;" edge="1" parent="1" target="YJNnLyJVlC_eIxuYvdxh-57">
          <mxGeometry x="-0.0244" y="5" relative="1" as="geometry">
            <mxPoint x="340" y="255" as="sourcePoint" />
            <mxPoint as="offset" />
          </mxGeometry>
        </mxCell>
        <mxCell id="YJNnLyJVlC_eIxuYvdxh-77" value="request to&amp;nbsp;/account/v1/@self" style="html=1;verticalAlign=bottom;endArrow=block;curved=0;rounded=0;" edge="1" parent="1" target="YJNnLyJVlC_eIxuYvdxh-84">
          <mxGeometry relative="1" as="geometry">
            <mxPoint x="555" y="320" as="sourcePoint" />
            <mxPoint as="offset" />
            <mxPoint x="700" y="320" as="targetPoint" />
          </mxGeometry>
        </mxCell>
        <mxCell id="YJNnLyJVlC_eIxuYvdxh-78" value="linkedAccounts" style="html=1;verticalAlign=bottom;endArrow=open;dashed=1;endSize=8;curved=0;rounded=0;exitX=0.456;exitY=0.57;exitDx=0;exitDy=0;exitPerimeter=0;" edge="1" parent="1">
          <mxGeometry x="-0.0064" y="-1" relative="1" as="geometry">
            <mxPoint x="555" y="468.8000000000002" as="targetPoint" />
            <mxPoint as="offset" />
            <mxPoint x="804.0400000000002" y="468.8000000000002" as="sourcePoint" />
          </mxGeometry>
        </mxCell>
        <mxCell id="YJNnLyJVlC_eIxuYvdxh-81" value="Kong" style="shape=umlLifeline;perimeter=lifelinePerimeter;container=1;collapsible=0;recursiveResize=0;rounded=0;shadow=0;strokeWidth=1;fillColor=#ffe6cc;strokeColor=#d79b00;" vertex="1" parent="1">
          <mxGeometry x="763" y="90" width="90" height="380" as="geometry" />
        </mxCell>
        <mxCell id="YJNnLyJVlC_eIxuYvdxh-82" value="request to /qbexport API" style="html=1;verticalAlign=bottom;endArrow=block;curved=0;rounded=0;entryX=0;entryY=0;entryDx=0;entryDy=5;" edge="1" parent="YJNnLyJVlC_eIxuYvdxh-81">
          <mxGeometry relative="1" as="geometry">
            <mxPoint x="100" y="75" as="sourcePoint" />
          </mxGeometry>
        </mxCell>
        <mxCell id="YJNnLyJVlC_eIxuYvdxh-83" value="response qbInvoices" style="html=1;verticalAlign=bottom;endArrow=open;dashed=1;endSize=8;curved=0;rounded=0;exitX=0;exitY=1;exitDx=0;exitDy=-5;" edge="1" parent="YJNnLyJVlC_eIxuYvdxh-81">
          <mxGeometry relative="1" as="geometry">
            <mxPoint x="100" y="145" as="targetPoint" />
          </mxGeometry>
        </mxCell>
        <mxCell id="YJNnLyJVlC_eIxuYvdxh-84" value="" style="html=1;points=[[0,0,0,0,5],[0,1,0,0,-5],[1,0,0,0,5],[1,1,0,0,-5]];perimeter=orthogonalPerimeter;outlineConnect=0;targetShapes=umlLifeline;portConstraint=eastwest;newEdgeStyle={&quot;curved&quot;:0,&quot;rounded&quot;:0};" vertex="1" parent="YJNnLyJVlC_eIxuYvdxh-81">
          <mxGeometry x="40" y="220" width="10" height="160" as="geometry" />
        </mxCell>
        <mxCell id="YJNnLyJVlC_eIxuYvdxh-85" value="" style="html=1;points=[[0,0,0,0,5],[0,1,0,0,-5],[1,0,0,0,5],[1,1,0,0,-5]];perimeter=orthogonalPerimeter;outlineConnect=0;targetShapes=umlLifeline;portConstraint=eastwest;newEdgeStyle={&quot;curved&quot;:0,&quot;rounded&quot;:0};" vertex="1" parent="YJNnLyJVlC_eIxuYvdxh-81">
          <mxGeometry x="50" y="251.25" width="10" height="22.5" as="geometry" />
        </mxCell>
        <mxCell id="YJNnLyJVlC_eIxuYvdxh-86" value="Validate JWT" style="html=1;align=left;spacingLeft=2;endArrow=block;rounded=0;edgeStyle=orthogonalEdgeStyle;curved=0;rounded=0;exitX=1;exitY=0;exitDx=0;exitDy=5;exitPerimeter=0;" edge="1" parent="YJNnLyJVlC_eIxuYvdxh-81" target="YJNnLyJVlC_eIxuYvdxh-85">
          <mxGeometry x="0.2632" relative="1" as="geometry">
            <mxPoint x="50" y="226.25" as="sourcePoint" />
            <Array as="points">
              <mxPoint x="50" y="231.25" />
              <mxPoint x="85" y="231.25" />
              <mxPoint x="85" y="261.25" />
            </Array>
            <mxPoint as="offset" />
          </mxGeometry>
        </mxCell>
        <mxCell id="YJNnLyJVlC_eIxuYvdxh-87" value="request to /ltpaidentity with JWT" style="html=1;verticalAlign=bottom;endArrow=block;curved=0;rounded=0;entryX=0;entryY=0;entryDx=0;entryDy=5;exitX=1;exitY=0;exitDx=0;exitDy=5;exitPerimeter=0;" edge="1" parent="1" source="YJNnLyJVlC_eIxuYvdxh-57" target="YJNnLyJVlC_eIxuYvdxh-65">
          <mxGeometry x="0.0039" relative="1" as="geometry">
            <mxPoint x="560" y="255" as="sourcePoint" />
            <mxPoint as="offset" />
          </mxGeometry>
        </mxCell>
        <mxCell id="YJNnLyJVlC_eIxuYvdxh-88" value="WCToken WCTrustedToken" style="html=1;verticalAlign=bottom;endArrow=open;dashed=1;endSize=8;curved=0;rounded=0;entryX=1;entryY=1;entryDx=0;entryDy=-5;entryPerimeter=0;exitX=-0.3;exitY=0.78;exitDx=0;exitDy=0;exitPerimeter=0;" edge="1" parent="1" source="YJNnLyJVlC_eIxuYvdxh-65">
          <mxGeometry relative="1" as="geometry">
            <mxPoint x="555" y="290" as="targetPoint" />
            <mxPoint as="offset" />
            <mxPoint x="760" y="290" as="sourcePoint" />
          </mxGeometry>
        </mxCell>
        <mxCell id="YJNnLyJVlC_eIxuYvdxh-89" style="edgeStyle=orthogonalEdgeStyle;rounded=0;orthogonalLoop=1;jettySize=auto;html=1;curved=0;entryX=0;entryY=0;entryDx=0;entryDy=5;entryPerimeter=0;" edge="1" parent="1" source="YJNnLyJVlC_eIxuYvdxh-84" target="YJNnLyJVlC_eIxuYvdxh-66">
          <mxGeometry relative="1" as="geometry">
            <Array as="points">
              <mxPoint x="860" y="395" />
              <mxPoint x="860" y="395" />
            </Array>
          </mxGeometry>
        </mxCell>
        <mxCell id="YJNnLyJVlC_eIxuYvdxh-90" value="request to&amp;nbsp;/account/v1/@self" style="edgeLabel;html=1;align=center;verticalAlign=middle;resizable=0;points=[];" connectable="0" vertex="1" parent="YJNnLyJVlC_eIxuYvdxh-89">
          <mxGeometry x="-0.0529" y="4" relative="1" as="geometry">
            <mxPoint y="-7" as="offset" />
          </mxGeometry>
        </mxCell>
        <mxCell id="YJNnLyJVlC_eIxuYvdxh-91" style="edgeStyle=orthogonalEdgeStyle;rounded=0;orthogonalLoop=1;jettySize=auto;html=1;curved=0;dashed=1;endArrow=open;endFill=0;" edge="1" parent="1">
          <mxGeometry relative="1" as="geometry">
            <mxPoint x="989" y="427" as="sourcePoint" />
            <mxPoint x="813" y="427" as="targetPoint" />
            <Array as="points">
              <mxPoint x="860" y="427" />
              <mxPoint x="860" y="427" />
            </Array>
          </mxGeometry>
        </mxCell>
        <mxCell id="YJNnLyJVlC_eIxuYvdxh-92" value="linkedAccounts" style="edgeLabel;html=1;align=center;verticalAlign=middle;resizable=0;points=[];" connectable="0" vertex="1" parent="YJNnLyJVlC_eIxuYvdxh-91">
          <mxGeometry x="0.0267" relative="1" as="geometry">
            <mxPoint y="-7" as="offset" />
          </mxGeometry>
        </mxCell>
        <mxCell id="YJNnLyJVlC_eIxuYvdxh-104" value="mapping json object to csv" style="text;html=1;align=center;verticalAlign=middle;whiteSpace=wrap;rounded=0;" vertex="1" parent="1">
          <mxGeometry x="590" y="590" width="129" height="50" as="geometry" />
        </mxCell>
        <mxCell id="YJNnLyJVlC_eIxuYvdxh-106" value="" style="html=1;points=[[0,0,0,0,5],[0,1,0,0,-5],[1,0,0,0,5],[1,1,0,0,-5]];perimeter=orthogonalPerimeter;outlineConnect=0;targetShapes=umlLifeline;portConstraint=eastwest;newEdgeStyle={&quot;curved&quot;:0,&quot;rounded&quot;:0};" vertex="1" parent="1">
          <mxGeometry x="155" y="160" width="10" height="590" as="geometry" />
        </mxCell>
        <mxCell id="YJNnLyJVlC_eIxuYvdxh-107" value="response csv" style="html=1;verticalAlign=bottom;endArrow=open;dashed=1;endSize=8;curved=0;rounded=0;exitX=0;exitY=1;exitDx=0;exitDy=-5;" edge="1" parent="1">
          <mxGeometry x="0.0244" relative="1" as="geometry">
            <mxPoint x="340" y="710" as="targetPoint" />
            <mxPoint x="545" y="710" as="sourcePoint" />
            <mxPoint as="offset" />
          </mxGeometry>
        </mxCell>
        <mxCell id="YJNnLyJVlC_eIxuYvdxh-108" value="Do we need to authenticate again?&amp;nbsp;" style="text;html=1;align=center;verticalAlign=middle;whiteSpace=wrap;rounded=0;labelBackgroundColor=#fffb00;" vertex="1" parent="1">
          <mxGeometry x="763" y="60" width="265" height="30" as="geometry" />
        </mxCell>
        <mxCell id="YJNnLyJVlC_eIxuYvdxh-162" value="S-W.com" style="shape=umlLifeline;perimeter=lifelinePerimeter;container=1;collapsible=0;recursiveResize=0;rounded=0;shadow=0;strokeWidth=1;fillColor=#1ba1e2;strokeColor=#006EAF;fontColor=#ffffff;" vertex="1" parent="1">
          <mxGeometry x="70" y="1540" width="140" height="770" as="geometry" />
        </mxCell>
        <mxCell id="YJNnLyJVlC_eIxuYvdxh-163" value="CSV Microservice" style="shape=umlLifeline;perimeter=lifelinePerimeter;container=1;collapsible=0;recursiveResize=0;rounded=0;shadow=0;strokeWidth=1;fillColor=#e1d5e7;strokeColor=#9673a6;" vertex="1" parent="1">
          <mxGeometry x="470" y="1540" width="120" height="810" as="geometry" />
        </mxCell>
        <mxCell id="YJNnLyJVlC_eIxuYvdxh-164" value="" style="html=1;points=[[0,0,0,0,5],[0,1,0,0,-5],[1,0,0,0,5],[1,1,0,0,-5]];perimeter=orthogonalPerimeter;outlineConnect=0;targetShapes=umlLifeline;portConstraint=eastwest;newEdgeStyle={&quot;curved&quot;:0,&quot;rounded&quot;:0};" vertex="1" parent="YJNnLyJVlC_eIxuYvdxh-163">
          <mxGeometry x="55" y="160" width="10" height="650" as="geometry" />
        </mxCell>
        <mxCell id="YJNnLyJVlC_eIxuYvdxh-165" value="" style="html=1;points=[[0,0,0,0,5],[0,1,0,0,-5],[1,0,0,0,5],[1,1,0,0,-5]];perimeter=orthogonalPerimeter;outlineConnect=0;targetShapes=umlLifeline;portConstraint=eastwest;newEdgeStyle={&quot;curved&quot;:0,&quot;rounded&quot;:0};" vertex="1" parent="YJNnLyJVlC_eIxuYvdxh-163">
          <mxGeometry x="65" y="420" width="10" height="40" as="geometry" />
        </mxCell>
        <mxCell id="YJNnLyJVlC_eIxuYvdxh-166" value="validate if user is having access &lt;br&gt;to requested account" style="html=1;align=left;spacingLeft=2;endArrow=block;rounded=0;edgeStyle=orthogonalEdgeStyle;curved=0;rounded=0;" edge="1" parent="YJNnLyJVlC_eIxuYvdxh-163" target="YJNnLyJVlC_eIxuYvdxh-165">
          <mxGeometry x="0.2121" relative="1" as="geometry">
            <mxPoint x="65" y="400" as="sourcePoint" />
            <Array as="points">
              <mxPoint x="100" y="400" />
              <mxPoint x="100" y="430" />
            </Array>
            <mxPoint as="offset" />
          </mxGeometry>
        </mxCell>
        <mxCell id="YJNnLyJVlC_eIxuYvdxh-167" value="" style="rounded=0;whiteSpace=wrap;html=1;" vertex="1" parent="YJNnLyJVlC_eIxuYvdxh-163">
          <mxGeometry x="65" y="550" width="15" height="40" as="geometry" />
        </mxCell>
        <mxCell id="YJNnLyJVlC_eIxuYvdxh-168" value="" style="html=1;align=left;spacingLeft=2;endArrow=block;rounded=0;edgeStyle=orthogonalEdgeStyle;curved=0;rounded=0;" edge="1" parent="YJNnLyJVlC_eIxuYvdxh-163" source="YJNnLyJVlC_eIxuYvdxh-164">
          <mxGeometry x="0.2222" relative="1" as="geometry">
            <mxPoint x="70" y="540" as="sourcePoint" />
            <Array as="points">
              <mxPoint x="90" y="540" />
              <mxPoint x="90" y="570" />
            </Array>
            <mxPoint as="offset" />
            <mxPoint x="80" y="570" as="targetPoint" />
          </mxGeometry>
        </mxCell>
        <mxCell id="YJNnLyJVlC_eIxuYvdxh-169" value="" style="rounded=0;whiteSpace=wrap;html=1;" vertex="1" parent="YJNnLyJVlC_eIxuYvdxh-163">
          <mxGeometry x="65" y="740" width="15" height="40" as="geometry" />
        </mxCell>
        <mxCell id="YJNnLyJVlC_eIxuYvdxh-170" value="" style="html=1;align=left;spacingLeft=2;endArrow=block;rounded=0;edgeStyle=orthogonalEdgeStyle;curved=0;rounded=0;" edge="1" parent="YJNnLyJVlC_eIxuYvdxh-163">
          <mxGeometry x="0.2222" relative="1" as="geometry">
            <mxPoint x="65" y="730" as="sourcePoint" />
            <Array as="points">
              <mxPoint x="90" y="730" />
              <mxPoint x="90" y="760" />
            </Array>
            <mxPoint as="offset" />
            <mxPoint x="80" y="760" as="targetPoint" />
          </mxGeometry>
        </mxCell>
        <mxCell id="YJNnLyJVlC_eIxuYvdxh-171" value="HCL Commerce" style="shape=umlLifeline;perimeter=lifelinePerimeter;container=1;collapsible=0;recursiveResize=0;rounded=0;shadow=0;strokeWidth=1;fillColor=#dae8fc;strokeColor=#6c8ebf;" vertex="1" parent="1">
          <mxGeometry x="924" y="1540" width="100" height="760" as="geometry" />
        </mxCell>
        <mxCell id="YJNnLyJVlC_eIxuYvdxh-172" value="" style="html=1;points=[[0,0,0,0,5],[0,1,0,0,-5],[1,0,0,0,5],[1,1,0,0,-5]];perimeter=orthogonalPerimeter;outlineConnect=0;targetShapes=umlLifeline;portConstraint=eastwest;newEdgeStyle={&quot;curved&quot;:0,&quot;rounded&quot;:0};" vertex="1" parent="YJNnLyJVlC_eIxuYvdxh-171">
          <mxGeometry x="45" y="160" width="10" height="50" as="geometry" />
        </mxCell>
        <mxCell id="YJNnLyJVlC_eIxuYvdxh-173" value="" style="html=1;points=[[0,0,0,0,5],[0,1,0,0,-5],[1,0,0,0,5],[1,1,0,0,-5]];perimeter=orthogonalPerimeter;outlineConnect=0;targetShapes=umlLifeline;portConstraint=eastwest;newEdgeStyle={&quot;curved&quot;:0,&quot;rounded&quot;:0};" vertex="1" parent="YJNnLyJVlC_eIxuYvdxh-171">
          <mxGeometry x="45" y="300" width="10" height="40" as="geometry" />
        </mxCell>
        <mxCell id="YJNnLyJVlC_eIxuYvdxh-174" value="Sherlink" style="shape=umlLifeline;perimeter=lifelinePerimeter;container=1;collapsible=0;recursiveResize=0;rounded=0;shadow=0;strokeWidth=1;fillColor=#d5e8d4;strokeColor=#82b366;" vertex="1" parent="1">
          <mxGeometry x="1210" y="1540" width="100" height="760" as="geometry" />
        </mxCell>
        <mxCell id="YJNnLyJVlC_eIxuYvdxh-175" value="" style="html=1;points=[[0,0,0,0,5],[0,1,0,0,-5],[1,0,0,0,5],[1,1,0,0,-5]];perimeter=orthogonalPerimeter;outlineConnect=0;targetShapes=umlLifeline;portConstraint=eastwest;newEdgeStyle={&quot;curved&quot;:0,&quot;rounded&quot;:0};" vertex="1" parent="YJNnLyJVlC_eIxuYvdxh-174">
          <mxGeometry x="45" y="615" width="10" height="30" as="geometry" />
        </mxCell>
        <mxCell id="YJNnLyJVlC_eIxuYvdxh-176" value="Kong" style="shape=umlLifeline;perimeter=lifelinePerimeter;container=1;collapsible=0;recursiveResize=0;rounded=0;shadow=0;strokeWidth=1;fillColor=#ffe6cc;strokeColor=#d79b00;" vertex="1" parent="1">
          <mxGeometry x="270" y="1540" width="90" height="830" as="geometry" />
        </mxCell>
        <mxCell id="YJNnLyJVlC_eIxuYvdxh-177" value="request to /qbexport API" style="html=1;verticalAlign=bottom;endArrow=block;curved=0;rounded=0;entryX=0;entryY=0;entryDx=0;entryDy=5;" edge="1" parent="YJNnLyJVlC_eIxuYvdxh-176">
          <mxGeometry relative="1" as="geometry">
            <mxPoint x="100" y="75" as="sourcePoint" />
          </mxGeometry>
        </mxCell>
        <mxCell id="YJNnLyJVlC_eIxuYvdxh-178" value="response qbInvoices" style="html=1;verticalAlign=bottom;endArrow=open;dashed=1;endSize=8;curved=0;rounded=0;exitX=0;exitY=1;exitDx=0;exitDy=-5;" edge="1" parent="YJNnLyJVlC_eIxuYvdxh-176">
          <mxGeometry relative="1" as="geometry">
            <mxPoint x="100" y="145" as="targetPoint" />
          </mxGeometry>
        </mxCell>
        <mxCell id="YJNnLyJVlC_eIxuYvdxh-179" value="" style="html=1;points=[[0,0,0,0,5],[0,1,0,0,-5],[1,0,0,0,5],[1,1,0,0,-5]];perimeter=orthogonalPerimeter;outlineConnect=0;targetShapes=umlLifeline;portConstraint=eastwest;newEdgeStyle={&quot;curved&quot;:0,&quot;rounded&quot;:0};" vertex="1" parent="YJNnLyJVlC_eIxuYvdxh-176">
          <mxGeometry x="40" y="70" width="10" height="760" as="geometry" />
        </mxCell>
        <mxCell id="YJNnLyJVlC_eIxuYvdxh-180" value="" style="html=1;points=[[0,0,0,0,5],[0,1,0,0,-5],[1,0,0,0,5],[1,1,0,0,-5]];perimeter=orthogonalPerimeter;outlineConnect=0;targetShapes=umlLifeline;portConstraint=eastwest;newEdgeStyle={&quot;curved&quot;:0,&quot;rounded&quot;:0};" vertex="1" parent="YJNnLyJVlC_eIxuYvdxh-176">
          <mxGeometry x="50" y="100" width="10" height="40" as="geometry" />
        </mxCell>
        <mxCell id="YJNnLyJVlC_eIxuYvdxh-181" value="Validate JWT" style="html=1;align=left;spacingLeft=2;endArrow=block;rounded=0;edgeStyle=orthogonalEdgeStyle;curved=0;rounded=0;exitX=1;exitY=0;exitDx=0;exitDy=5;exitPerimeter=0;" edge="1" parent="YJNnLyJVlC_eIxuYvdxh-176" source="YJNnLyJVlC_eIxuYvdxh-179" target="YJNnLyJVlC_eIxuYvdxh-180">
          <mxGeometry x="0.2632" relative="1" as="geometry">
            <mxPoint x="55" y="80" as="sourcePoint" />
            <Array as="points">
              <mxPoint x="50" y="80" />
              <mxPoint x="85" y="80" />
              <mxPoint x="85" y="110" />
            </Array>
            <mxPoint as="offset" />
          </mxGeometry>
        </mxCell>
        <mxCell id="YJNnLyJVlC_eIxuYvdxh-182" value="request to /invoice/csv API with JWT" style="html=1;verticalAlign=bottom;endArrow=block;curved=0;rounded=0;entryX=0;entryY=0;entryDx=0;entryDy=5;exitX=1;exitY=0;exitDx=0;exitDy=5;exitPerimeter=0;" edge="1" parent="1" source="YJNnLyJVlC_eIxuYvdxh-213" target="YJNnLyJVlC_eIxuYvdxh-179">
          <mxGeometry x="0.0588" y="5" relative="1" as="geometry">
            <mxPoint x="140" y="1615" as="sourcePoint" />
            <mxPoint as="offset" />
          </mxGeometry>
        </mxCell>
        <mxCell id="YJNnLyJVlC_eIxuYvdxh-183" value="request to /invoice API with JWT" style="html=1;verticalAlign=bottom;endArrow=block;curved=0;rounded=0;entryX=0;entryY=0;entryDx=0;entryDy=5;" edge="1" parent="1" target="YJNnLyJVlC_eIxuYvdxh-164">
          <mxGeometry x="-0.0244" y="5" relative="1" as="geometry">
            <mxPoint x="320" y="1705" as="sourcePoint" />
            <mxPoint as="offset" />
          </mxGeometry>
        </mxCell>
        <mxCell id="YJNnLyJVlC_eIxuYvdxh-184" value="request to&amp;nbsp;/account/v1/@self" style="html=1;verticalAlign=bottom;endArrow=block;curved=0;rounded=0;" edge="1" parent="1" target="YJNnLyJVlC_eIxuYvdxh-191">
          <mxGeometry relative="1" as="geometry">
            <mxPoint x="535" y="1770" as="sourcePoint" />
            <mxPoint as="offset" />
            <mxPoint x="680" y="1770" as="targetPoint" />
          </mxGeometry>
        </mxCell>
        <mxCell id="YJNnLyJVlC_eIxuYvdxh-185" value="linkedAccounts" style="html=1;verticalAlign=bottom;endArrow=open;dashed=1;endSize=8;curved=0;rounded=0;exitX=0.456;exitY=0.57;exitDx=0;exitDy=0;exitPerimeter=0;" edge="1" parent="1">
          <mxGeometry x="-0.0064" y="-1" relative="1" as="geometry">
            <mxPoint x="535" y="1918.8000000000002" as="targetPoint" />
            <mxPoint as="offset" />
            <mxPoint x="784.0400000000002" y="1918.8000000000002" as="sourcePoint" />
          </mxGeometry>
        </mxCell>
        <mxCell id="YJNnLyJVlC_eIxuYvdxh-186" value="request to searchinvoices" style="html=1;verticalAlign=bottom;endArrow=block;curved=0;rounded=0;entryX=0;entryY=0;entryDx=0;entryDy=5;" edge="1" parent="1" source="YJNnLyJVlC_eIxuYvdxh-164" target="YJNnLyJVlC_eIxuYvdxh-175">
          <mxGeometry relative="1" as="geometry">
            <mxPoint x="540" y="2160" as="sourcePoint" />
          </mxGeometry>
        </mxCell>
        <mxCell id="YJNnLyJVlC_eIxuYvdxh-187" value="searchInvoiceResponse" style="html=1;verticalAlign=bottom;endArrow=open;dashed=1;endSize=8;curved=0;rounded=0;exitX=0;exitY=1;exitDx=0;exitDy=-5;" edge="1" parent="1" source="YJNnLyJVlC_eIxuYvdxh-175" target="YJNnLyJVlC_eIxuYvdxh-163">
          <mxGeometry relative="1" as="geometry">
            <mxPoint x="535" y="2050" as="targetPoint" />
          </mxGeometry>
        </mxCell>
        <mxCell id="YJNnLyJVlC_eIxuYvdxh-188" value="Kong" style="shape=umlLifeline;perimeter=lifelinePerimeter;container=1;collapsible=0;recursiveResize=0;rounded=0;shadow=0;strokeWidth=1;fillColor=#ffe6cc;strokeColor=#d79b00;" vertex="1" parent="1">
          <mxGeometry x="743" y="1540" width="90" height="760" as="geometry" />
        </mxCell>
        <mxCell id="YJNnLyJVlC_eIxuYvdxh-189" value="request to /qbexport API" style="html=1;verticalAlign=bottom;endArrow=block;curved=0;rounded=0;entryX=0;entryY=0;entryDx=0;entryDy=5;" edge="1" parent="YJNnLyJVlC_eIxuYvdxh-188">
          <mxGeometry relative="1" as="geometry">
            <mxPoint x="100" y="75" as="sourcePoint" />
          </mxGeometry>
        </mxCell>
        <mxCell id="YJNnLyJVlC_eIxuYvdxh-190" value="response qbInvoices" style="html=1;verticalAlign=bottom;endArrow=open;dashed=1;endSize=8;curved=0;rounded=0;exitX=0;exitY=1;exitDx=0;exitDy=-5;" edge="1" parent="YJNnLyJVlC_eIxuYvdxh-188">
          <mxGeometry relative="1" as="geometry">
            <mxPoint x="100" y="145" as="targetPoint" />
          </mxGeometry>
        </mxCell>
        <mxCell id="YJNnLyJVlC_eIxuYvdxh-191" value="" style="html=1;points=[[0,0,0,0,5],[0,1,0,0,-5],[1,0,0,0,5],[1,1,0,0,-5]];perimeter=orthogonalPerimeter;outlineConnect=0;targetShapes=umlLifeline;portConstraint=eastwest;newEdgeStyle={&quot;curved&quot;:0,&quot;rounded&quot;:0};" vertex="1" parent="YJNnLyJVlC_eIxuYvdxh-188">
          <mxGeometry x="40" y="220" width="10" height="160" as="geometry" />
        </mxCell>
        <mxCell id="YJNnLyJVlC_eIxuYvdxh-192" value="" style="html=1;points=[[0,0,0,0,5],[0,1,0,0,-5],[1,0,0,0,5],[1,1,0,0,-5]];perimeter=orthogonalPerimeter;outlineConnect=0;targetShapes=umlLifeline;portConstraint=eastwest;newEdgeStyle={&quot;curved&quot;:0,&quot;rounded&quot;:0};" vertex="1" parent="YJNnLyJVlC_eIxuYvdxh-188">
          <mxGeometry x="50" y="251.25" width="10" height="22.5" as="geometry" />
        </mxCell>
        <mxCell id="YJNnLyJVlC_eIxuYvdxh-193" value="Validate JWT" style="html=1;align=left;spacingLeft=2;endArrow=block;rounded=0;edgeStyle=orthogonalEdgeStyle;curved=0;rounded=0;exitX=1;exitY=0;exitDx=0;exitDy=5;exitPerimeter=0;" edge="1" parent="YJNnLyJVlC_eIxuYvdxh-188" target="YJNnLyJVlC_eIxuYvdxh-192">
          <mxGeometry x="0.2632" relative="1" as="geometry">
            <mxPoint x="50" y="226.25" as="sourcePoint" />
            <Array as="points">
              <mxPoint x="50" y="231.25" />
              <mxPoint x="85" y="231.25" />
              <mxPoint x="85" y="261.25" />
            </Array>
            <mxPoint as="offset" />
          </mxGeometry>
        </mxCell>
        <mxCell id="YJNnLyJVlC_eIxuYvdxh-194" value="request to /ltpaidentity with JWT" style="html=1;verticalAlign=bottom;endArrow=block;curved=0;rounded=0;entryX=0;entryY=0;entryDx=0;entryDy=5;exitX=1;exitY=0;exitDx=0;exitDy=5;exitPerimeter=0;" edge="1" parent="1" source="YJNnLyJVlC_eIxuYvdxh-164" target="YJNnLyJVlC_eIxuYvdxh-172">
          <mxGeometry x="0.0039" relative="1" as="geometry">
            <mxPoint x="540" y="1705" as="sourcePoint" />
            <mxPoint as="offset" />
          </mxGeometry>
        </mxCell>
        <mxCell id="YJNnLyJVlC_eIxuYvdxh-195" value="WCToken WCTrustedToken" style="html=1;verticalAlign=bottom;endArrow=open;dashed=1;endSize=8;curved=0;rounded=0;entryX=1;entryY=1;entryDx=0;entryDy=-5;entryPerimeter=0;exitX=-0.3;exitY=0.78;exitDx=0;exitDy=0;exitPerimeter=0;" edge="1" parent="1" source="YJNnLyJVlC_eIxuYvdxh-172">
          <mxGeometry relative="1" as="geometry">
            <mxPoint x="535" y="1740" as="targetPoint" />
            <mxPoint as="offset" />
            <mxPoint x="740" y="1740" as="sourcePoint" />
          </mxGeometry>
        </mxCell>
        <mxCell id="YJNnLyJVlC_eIxuYvdxh-196" style="edgeStyle=orthogonalEdgeStyle;rounded=0;orthogonalLoop=1;jettySize=auto;html=1;curved=0;entryX=0;entryY=0;entryDx=0;entryDy=5;entryPerimeter=0;" edge="1" parent="1" source="YJNnLyJVlC_eIxuYvdxh-191" target="YJNnLyJVlC_eIxuYvdxh-173">
          <mxGeometry relative="1" as="geometry">
            <Array as="points">
              <mxPoint x="840" y="1845" />
              <mxPoint x="840" y="1845" />
            </Array>
          </mxGeometry>
        </mxCell>
        <mxCell id="YJNnLyJVlC_eIxuYvdxh-197" value="request to&amp;nbsp;/account/v1/@self" style="edgeLabel;html=1;align=center;verticalAlign=middle;resizable=0;points=[];" connectable="0" vertex="1" parent="YJNnLyJVlC_eIxuYvdxh-196">
          <mxGeometry x="-0.0529" y="4" relative="1" as="geometry">
            <mxPoint y="-7" as="offset" />
          </mxGeometry>
        </mxCell>
        <mxCell id="YJNnLyJVlC_eIxuYvdxh-198" style="edgeStyle=orthogonalEdgeStyle;rounded=0;orthogonalLoop=1;jettySize=auto;html=1;curved=0;dashed=1;endArrow=open;endFill=0;" edge="1" parent="1">
          <mxGeometry relative="1" as="geometry">
            <mxPoint x="969" y="1877" as="sourcePoint" />
            <mxPoint x="793" y="1877" as="targetPoint" />
            <Array as="points">
              <mxPoint x="840" y="1877" />
              <mxPoint x="840" y="1877" />
            </Array>
          </mxGeometry>
        </mxCell>
        <mxCell id="YJNnLyJVlC_eIxuYvdxh-199" value="linkedAccounts" style="edgeLabel;html=1;align=center;verticalAlign=middle;resizable=0;points=[];" connectable="0" vertex="1" parent="YJNnLyJVlC_eIxuYvdxh-198">
          <mxGeometry x="0.0267" relative="1" as="geometry">
            <mxPoint y="-7" as="offset" />
          </mxGeometry>
        </mxCell>
        <mxCell id="YJNnLyJVlC_eIxuYvdxh-200" value="response invoices with&amp;nbsp;&lt;br style=&quot;border-color: var(--border-color);&quot;&gt;qbexported flag" style="html=1;verticalAlign=bottom;endArrow=open;dashed=1;endSize=8;curved=0;rounded=0;exitX=0;exitY=1;exitDx=0;exitDy=-5;exitPerimeter=0;" edge="1" parent="1" source="YJNnLyJVlC_eIxuYvdxh-179" target="YJNnLyJVlC_eIxuYvdxh-213">
          <mxGeometry x="0.0588" y="-5" relative="1" as="geometry">
            <mxPoint x="160" y="2089" as="targetPoint" />
            <mxPoint x="330" y="2087" as="sourcePoint" />
            <mxPoint as="offset" />
          </mxGeometry>
        </mxCell>
        <mxCell id="YJNnLyJVlC_eIxuYvdxh-201" value="PSG-QuickbooksIntegration-Service" style="shape=umlLifeline;perimeter=lifelinePerimeter;container=1;collapsible=0;recursiveResize=0;rounded=0;shadow=0;strokeWidth=1;fillColor=#f5f5f5;strokeColor=#666666;fontColor=#333333;" vertex="1" parent="1">
          <mxGeometry x="1350" y="1540" width="210" height="760" as="geometry" />
        </mxCell>
        <mxCell id="YJNnLyJVlC_eIxuYvdxh-202" value="" style="html=1;points=[[0,0,0,0,5],[0,1,0,0,-5],[1,0,0,0,5],[1,1,0,0,-5]];perimeter=orthogonalPerimeter;outlineConnect=0;targetShapes=umlLifeline;portConstraint=eastwest;newEdgeStyle={&quot;curved&quot;:0,&quot;rounded&quot;:0};" vertex="1" parent="YJNnLyJVlC_eIxuYvdxh-201">
          <mxGeometry x="100" y="670" width="10" height="40" as="geometry" />
        </mxCell>
        <mxCell id="YJNnLyJVlC_eIxuYvdxh-203" value="response with qbExported flag" style="html=1;verticalAlign=bottom;endArrow=open;dashed=1;endSize=8;curved=0;rounded=0;exitX=0;exitY=1;exitDx=0;exitDy=-5;exitPerimeter=0;" edge="1" parent="1" source="YJNnLyJVlC_eIxuYvdxh-202" target="YJNnLyJVlC_eIxuYvdxh-164">
          <mxGeometry x="0.0019" relative="1" as="geometry">
            <mxPoint x="770" y="2130" as="targetPoint" />
            <mxPoint as="offset" />
            <mxPoint x="1285" y="2130" as="sourcePoint" />
          </mxGeometry>
        </mxCell>
        <mxCell id="YJNnLyJVlC_eIxuYvdxh-204" value="request to get qbExported flag" style="html=1;verticalAlign=bottom;endArrow=block;curved=0;rounded=0;entryX=0;entryY=0;entryDx=0;entryDy=5;entryPerimeter=0;" edge="1" parent="1" source="YJNnLyJVlC_eIxuYvdxh-164" target="YJNnLyJVlC_eIxuYvdxh-202">
          <mxGeometry x="0.068" y="5" relative="1" as="geometry">
            <mxPoint x="540" y="2105" as="sourcePoint" />
            <mxPoint x="1055.5" y="2100" as="targetPoint" />
            <mxPoint as="offset" />
          </mxGeometry>
        </mxCell>
        <mxCell id="YJNnLyJVlC_eIxuYvdxh-205" value="CPR" style="rounded=0;whiteSpace=wrap;html=1;fillColor=#f8cecc;strokeColor=#b85450;" vertex="1" parent="1">
          <mxGeometry x="1070" y="1540" width="80" height="40" as="geometry" />
        </mxCell>
        <mxCell id="YJNnLyJVlC_eIxuYvdxh-206" value="" style="endArrow=none;dashed=1;html=1;dashPattern=1 3;strokeWidth=2;rounded=0;entryX=0.5;entryY=1;entryDx=0;entryDy=0;fillColor=#f8cecc;strokeColor=#b85450;exitX=0.9;exitY=0.5;exitDx=0;exitDy=0;exitPerimeter=0;" edge="1" parent="1" source="YJNnLyJVlC_eIxuYvdxh-207" target="YJNnLyJVlC_eIxuYvdxh-205">
          <mxGeometry width="50" height="50" relative="1" as="geometry">
            <mxPoint x="1110" y="1980" as="sourcePoint" />
            <mxPoint x="1110" y="1600" as="targetPoint" />
          </mxGeometry>
        </mxCell>
        <mxCell id="YJNnLyJVlC_eIxuYvdxh-207" value="" style="rounded=0;whiteSpace=wrap;html=1;rotation=-90;" vertex="1" parent="1">
          <mxGeometry x="1082.5" y="2027.5" width="55" height="20" as="geometry" />
        </mxCell>
        <mxCell id="YJNnLyJVlC_eIxuYvdxh-208" value="" style="endArrow=classic;html=1;rounded=0;entryX=0.75;entryY=0;entryDx=0;entryDy=0;" edge="1" parent="1" source="YJNnLyJVlC_eIxuYvdxh-163" target="YJNnLyJVlC_eIxuYvdxh-207">
          <mxGeometry width="50" height="50" relative="1" as="geometry">
            <mxPoint x="550" y="2024" as="sourcePoint" />
            <mxPoint x="940" y="1850" as="targetPoint" />
          </mxGeometry>
        </mxCell>
        <mxCell id="YJNnLyJVlC_eIxuYvdxh-209" value="" style="endArrow=classic;html=1;rounded=0;exitX=0.25;exitY=0;exitDx=0;exitDy=0;" edge="1" parent="1" source="YJNnLyJVlC_eIxuYvdxh-207" target="YJNnLyJVlC_eIxuYvdxh-163">
          <mxGeometry width="50" height="50" relative="1" as="geometry">
            <mxPoint x="1050" y="2050" as="sourcePoint" />
            <mxPoint x="540" y="2060" as="targetPoint" />
          </mxGeometry>
        </mxCell>
        <mxCell id="YJNnLyJVlC_eIxuYvdxh-210" value="Date Inception Validation" style="text;html=1;align=center;verticalAlign=middle;whiteSpace=wrap;rounded=0;" vertex="1" parent="1">
          <mxGeometry x="620" y="2000" width="140" height="30" as="geometry" />
        </mxCell>
        <mxCell id="YJNnLyJVlC_eIxuYvdxh-211" value="change start date based on inception date" style="text;html=1;align=center;verticalAlign=middle;whiteSpace=wrap;rounded=0;" vertex="1" parent="1">
          <mxGeometry x="570" y="2080" width="129" height="50" as="geometry" />
        </mxCell>
        <mxCell id="YJNnLyJVlC_eIxuYvdxh-212" value="update responseResource invoices with qbExported flag" style="text;html=1;align=center;verticalAlign=middle;whiteSpace=wrap;rounded=0;" vertex="1" parent="1">
          <mxGeometry x="560" y="2270" width="130" height="60" as="geometry" />
        </mxCell>
        <mxCell id="YJNnLyJVlC_eIxuYvdxh-213" value="" style="html=1;points=[[0,0,0,0,5],[0,1,0,0,-5],[1,0,0,0,5],[1,1,0,0,-5]];perimeter=orthogonalPerimeter;outlineConnect=0;targetShapes=umlLifeline;portConstraint=eastwest;newEdgeStyle={&quot;curved&quot;:0,&quot;rounded&quot;:0};" vertex="1" parent="1">
          <mxGeometry x="135" y="1610" width="10" height="760" as="geometry" />
        </mxCell>
        <mxCell id="YJNnLyJVlC_eIxuYvdxh-214" value="response invoices with qbexport flag" style="html=1;verticalAlign=bottom;endArrow=open;dashed=1;endSize=8;curved=0;rounded=0;exitX=0;exitY=1;exitDx=0;exitDy=-5;" edge="1" parent="1">
          <mxGeometry x="0.0244" relative="1" as="geometry">
            <mxPoint x="320" y="2340" as="targetPoint" />
            <mxPoint x="525" y="2340" as="sourcePoint" />
            <mxPoint as="offset" />
          </mxGeometry>
        </mxCell>
        <mxCell id="YJNnLyJVlC_eIxuYvdxh-215" value="Mapping Json To Csv" style="text;html=1;align=center;verticalAlign=middle;whiteSpace=wrap;rounded=0;labelBackgroundColor=#fffb00;" vertex="1" parent="1">
          <mxGeometry y="780" width="200" height="30" as="geometry" />
        </mxCell>
        <mxCell id="YJNnLyJVlC_eIxuYvdxh-216" value="Controller" style="rounded=0;whiteSpace=wrap;html=1;fillColor=#d80073;strokeColor=#A50040;fontColor=#ffffff;" vertex="1" parent="1">
          <mxGeometry x="275" y="840" width="120" height="60" as="geometry" />
        </mxCell>
        <mxCell id="YJNnLyJVlC_eIxuYvdxh-217" value="JSON Request Payload" style="rounded=0;whiteSpace=wrap;html=1;fillColor=#fff2cc;strokeColor=#d6b656;" vertex="1" parent="1">
          <mxGeometry x="130" y="950" width="160" height="40" as="geometry" />
        </mxCell>
        <mxCell id="YJNnLyJVlC_eIxuYvdxh-222" value="CSV Mapper" style="rounded=0;whiteSpace=wrap;html=1;fillColor=#e1d5e7;strokeColor=#9673a6;" vertex="1" parent="1">
          <mxGeometry x="530" y="840" width="120" height="60" as="geometry" />
        </mxCell>
        <mxCell id="YJNnLyJVlC_eIxuYvdxh-225" value="Frontend" style="rounded=0;whiteSpace=wrap;html=1;fillColor=#1ba1e2;fontColor=#ffffff;strokeColor=#006EAF;" vertex="1" parent="1">
          <mxGeometry x="30" y="840" width="120" height="60" as="geometry" />
        </mxCell>
        <mxCell id="YJNnLyJVlC_eIxuYvdxh-226" value="" style="rounded=0;whiteSpace=wrap;html=1;" vertex="1" parent="1">
          <mxGeometry x="80" y="935" width="20" height="370" as="geometry" />
        </mxCell>
        <mxCell id="YJNnLyJVlC_eIxuYvdxh-227" value="" style="rounded=0;whiteSpace=wrap;html=1;" vertex="1" parent="1">
          <mxGeometry x="325" y="915" width="20" height="495" as="geometry" />
        </mxCell>
        <mxCell id="YJNnLyJVlC_eIxuYvdxh-228" value="" style="rounded=0;whiteSpace=wrap;html=1;" vertex="1" parent="1">
          <mxGeometry x="580" y="912.5" width="20" height="497.5" as="geometry" />
        </mxCell>
        <mxCell id="YJNnLyJVlC_eIxuYvdxh-234" value="&lt;a href=&quot;https://www.baeldung.com/java-converting-json-to-csv&quot;&gt;https://www.baeldung.com/java-converting-json-to-csv&lt;/a&gt;" style="text;html=1;align=center;verticalAlign=middle;whiteSpace=wrap;rounded=0;" vertex="1" parent="1">
          <mxGeometry x="80" y="810" width="60" height="30" as="geometry" />
        </mxCell>
        <mxCell id="YJNnLyJVlC_eIxuYvdxh-235" value="" style="endArrow=classic;html=1;rounded=0;exitX=1.097;exitY=0.377;exitDx=0;exitDy=0;entryX=0.084;entryY=0.38;entryDx=0;entryDy=0;entryPerimeter=0;exitPerimeter=0;" edge="1" parent="1" source="YJNnLyJVlC_eIxuYvdxh-227" target="YJNnLyJVlC_eIxuYvdxh-228">
          <mxGeometry width="50" height="50" relative="1" as="geometry">
            <mxPoint x="410" y="1150" as="sourcePoint" />
            <mxPoint x="460" y="1100" as="targetPoint" />
          </mxGeometry>
        </mxCell>
        <mxCell id="YJNnLyJVlC_eIxuYvdxh-237" value="" style="endArrow=classic;html=1;rounded=0;exitX=0;exitY=0.5;exitDx=0;exitDy=0;" edge="1" parent="1" source="YJNnLyJVlC_eIxuYvdxh-228" target="YJNnLyJVlC_eIxuYvdxh-227">
          <mxGeometry width="50" height="50" relative="1" as="geometry">
            <mxPoint x="540" y="1120" as="sourcePoint" />
            <mxPoint x="347" y="1095" as="targetPoint" />
            <Array as="points" />
          </mxGeometry>
        </mxCell>
        <mxCell id="YJNnLyJVlC_eIxuYvdxh-246" value="JsonNode" style="rounded=0;whiteSpace=wrap;html=1;fillColor=#b1ddf0;strokeColor=#10739e;" vertex="1" parent="1">
          <mxGeometry x="400" y="1130" width="115" height="20" as="geometry" />
        </mxCell>
        <mxCell id="YJNnLyJVlC_eIxuYvdxh-248" value="JsonNode" style="rounded=0;whiteSpace=wrap;html=1;fillColor=#b1ddf0;strokeColor=#10739e;" vertex="1" parent="1">
          <mxGeometry x="395" y="1180" width="120" height="20" as="geometry" />
        </mxCell>
        <mxCell id="YJNnLyJVlC_eIxuYvdxh-249" value="" style="endArrow=classic;html=1;rounded=0;exitX=-0.074;exitY=0.697;exitDx=0;exitDy=0;exitPerimeter=0;entryX=1.045;entryY=0.698;entryDx=0;entryDy=0;entryPerimeter=0;" edge="1" parent="1" source="YJNnLyJVlC_eIxuYvdxh-228" target="YJNnLyJVlC_eIxuYvdxh-227">
          <mxGeometry width="50" height="50" relative="1" as="geometry">
            <mxPoint x="470" y="1170" as="sourcePoint" />
            <mxPoint x="520" y="1120" as="targetPoint" />
            <Array as="points" />
          </mxGeometry>
        </mxCell>
        <mxCell id="YJNnLyJVlC_eIxuYvdxh-250" value="CsvSchema" style="rounded=0;whiteSpace=wrap;html=1;fillColor=#fad7ac;strokeColor=#b46504;" vertex="1" parent="1">
          <mxGeometry x="395" y="1220" width="120" height="30" as="geometry" />
        </mxCell>
        <mxCell id="YJNnLyJVlC_eIxuYvdxh-251" value="" style="endArrow=classic;html=1;rounded=0;exitX=1.097;exitY=0.591;exitDx=0;exitDy=0;exitPerimeter=0;entryX=-0.021;entryY=0.596;entryDx=0;entryDy=0;entryPerimeter=0;" edge="1" parent="1" source="YJNnLyJVlC_eIxuYvdxh-227" target="YJNnLyJVlC_eIxuYvdxh-228">
          <mxGeometry width="50" height="50" relative="1" as="geometry">
            <mxPoint x="360" y="1200" as="sourcePoint" />
            <mxPoint x="410" y="1150" as="targetPoint" />
          </mxGeometry>
        </mxCell>
        <mxCell id="YJNnLyJVlC_eIxuYvdxh-252" value="" style="endArrow=classic;html=1;rounded=0;exitX=0.992;exitY=0.813;exitDx=0;exitDy=0;entryX=-0.074;entryY=0.816;entryDx=0;entryDy=0;entryPerimeter=0;exitPerimeter=0;" edge="1" parent="1" source="YJNnLyJVlC_eIxuYvdxh-227" target="YJNnLyJVlC_eIxuYvdxh-228">
          <mxGeometry width="50" height="50" relative="1" as="geometry">
            <mxPoint x="350" y="1281" as="sourcePoint" />
            <mxPoint x="565" y="1280" as="targetPoint" />
          </mxGeometry>
        </mxCell>
        <mxCell id="YJNnLyJVlC_eIxuYvdxh-253" value="CsvSchema" style="rounded=0;whiteSpace=wrap;html=1;fillColor=#fad7ac;strokeColor=#b46504;" vertex="1" parent="1">
          <mxGeometry x="395" y="1275" width="120" height="30" as="geometry" />
        </mxCell>
        <mxCell id="YJNnLyJVlC_eIxuYvdxh-255" value="" style="rounded=0;whiteSpace=wrap;html=1;" vertex="1" parent="1">
          <mxGeometry x="345" y="1340" width="25" height="60" as="geometry" />
        </mxCell>
        <mxCell id="YJNnLyJVlC_eIxuYvdxh-257" value="Write to CSVMapper / Write to File" style="text;html=1;align=center;verticalAlign=middle;whiteSpace=wrap;rounded=0;" vertex="1" parent="1">
          <mxGeometry x="380" y="1370" width="120" height="30" as="geometry" />
        </mxCell>
        <mxCell id="YJNnLyJVlC_eIxuYvdxh-258" value="" style="endArrow=classic;html=1;rounded=0;exitX=1.045;exitY=0.109;exitDx=0;exitDy=0;exitPerimeter=0;" edge="1" parent="1" source="YJNnLyJVlC_eIxuYvdxh-227">
          <mxGeometry width="50" height="50" relative="1" as="geometry">
            <mxPoint x="350" y="960" as="sourcePoint" />
            <mxPoint x="580" y="969" as="targetPoint" />
          </mxGeometry>
        </mxCell>
        <mxCell id="YJNnLyJVlC_eIxuYvdxh-260" value="(RAW) JSON Request" style="rounded=0;whiteSpace=wrap;html=1;fillColor=#fff2cc;strokeColor=#d6b656;" vertex="1" parent="1">
          <mxGeometry x="375" y="915" width="160" height="40" as="geometry" />
        </mxCell>
        <mxCell id="YJNnLyJVlC_eIxuYvdxh-261" value="" style="endArrow=classic;html=1;rounded=0;exitX=0;exitY=0.25;exitDx=0;exitDy=0;entryX=1;entryY=0.25;entryDx=0;entryDy=0;" edge="1" parent="1" source="YJNnLyJVlC_eIxuYvdxh-228" target="YJNnLyJVlC_eIxuYvdxh-227">
          <mxGeometry width="50" height="50" relative="1" as="geometry">
            <mxPoint x="420" y="1170" as="sourcePoint" />
            <mxPoint x="470" y="1120" as="targetPoint" />
          </mxGeometry>
        </mxCell>
        <mxCell id="YJNnLyJVlC_eIxuYvdxh-262" value="JSON File" style="rounded=0;whiteSpace=wrap;html=1;fillColor=#fad9d5;strokeColor=#ae4132;" vertex="1" parent="1">
          <mxGeometry x="375" y="990" width="160" height="40" as="geometry" />
        </mxCell>
        <mxCell id="YJNnLyJVlC_eIxuYvdxh-264" value="JSON File" style="rounded=0;whiteSpace=wrap;html=1;fillColor=#fad9d5;strokeColor=#ae4132;" vertex="1" parent="1">
          <mxGeometry x="375" y="1060" width="160" height="40" as="geometry" />
        </mxCell>
        <mxCell id="YJNnLyJVlC_eIxuYvdxh-265" value="" style="html=1;align=left;spacingLeft=2;endArrow=block;rounded=0;edgeStyle=orthogonalEdgeStyle;curved=0;rounded=0;" edge="1" parent="1">
          <mxGeometry x="0.2652" relative="1" as="geometry">
            <mxPoint x="345" y="1340" as="sourcePoint" />
            <Array as="points">
              <mxPoint x="345" y="1330" />
              <mxPoint x="350" y="1330" />
              <mxPoint x="350" y="1335" />
              <mxPoint x="395" y="1335" />
              <mxPoint x="395" y="1365" />
            </Array>
            <mxPoint as="offset" />
            <mxPoint x="370.05" y="1365" as="targetPoint" />
          </mxGeometry>
        </mxCell>
        <mxCell id="YJNnLyJVlC_eIxuYvdxh-266" value="Because we are writing to file here, does this step need to happen in the controller?" style="text;html=1;align=center;verticalAlign=middle;whiteSpace=wrap;rounded=0;labelBackgroundColor=#fffb00;" vertex="1" parent="1">
          <mxGeometry x="370" y="1410" width="200" height="30" as="geometry" />
        </mxCell>
        <mxCell id="YJNnLyJVlC_eIxuYvdxh-267" value="&lt;a href=&quot;https://subscription.packtpub.com/book/data/9781787122536/1/ch01lvl1sec18/writing-json-files-using-json-simple&quot;&gt;https://subscription.packtpub.com/book/data/9781787122536/1/ch01lvl1sec18/writing-json-files-using-json-simple&lt;/a&gt;" style="text;html=1;align=center;verticalAlign=middle;whiteSpace=wrap;rounded=0;" vertex="1" parent="1">
          <mxGeometry x="410" y="800" width="60" height="30" as="geometry" />
        </mxCell>
      </root>
    </mxGraphModel>
  </diagram>
</mxfile>
